<?xml version="1.0" encoding="UTF-8" standalone="no"?>
<!-- Created with Inkscape (http://www.inkscape.org/) -->

<svg
   width="32"
   height="32"
   viewBox="0 0 8.4666665 8.4666666"
   version="1.1"
   id="svg5"
   xml:space="preserve"
   inkscape:version="1.2.1 (9c6d41e410, 2022-07-14)"
   sodipodi:docname="buffer_toggle.svg"
   xmlns:inkscape="http://www.inkscape.org/namespaces/inkscape"
   xmlns:sodipodi="http://sodipodi.sourceforge.net/DTD/sodipodi-0.dtd"
   xmlns="http://www.w3.org/2000/svg"
   xmlns:svg="http://www.w3.org/2000/svg"><sodipodi:namedview
     id="namedview7"
     pagecolor="#ffffff"
     bordercolor="#999999"
     borderopacity="1"
     inkscape:showpageshadow="0"
     inkscape:pageopacity="0"
     inkscape:pagecheckerboard="0"
     inkscape:deskcolor="#d1d1d1"
     inkscape:document-units="mm"
     showgrid="false"
     inkscape:zoom="2.1089995"
     inkscape:cx="70.649612"
     inkscape:cy="6.6382186"
     inkscape:window-width="1920"
     inkscape:window-height="1017"
     inkscape:window-x="1912"
     inkscape:window-y="-8"
     inkscape:window-maximized="1"
     inkscape:current-layer="layer2" /><defs
     id="defs2" /><g
     inkscape:label="Camada 1"
     inkscape:groupmode="layer"
     id="layer1" /><g
     inkscape:groupmode="layer"
     id="layer2"
     inkscape:label="Camada 2"><g
       style="fill:#000000"
       id="g1804"
       transform="matrix(0.08264906,0,0,0.08264906,-0.31364672,0.07821014)"><g
         id="turf-buffer">
	<path
   d="m 26.422,99 h -0.063 c -2.205,0 -4.384,-0.496 -6.475,-1.25 -0.806,-0.291 -1.595,-0.693 -2.345,-1.085 -1.224,-0.639 -1.699,-2.177 -1.061,-3.401 0.638,-1.224 2.149,-1.713 3.373,-1.075 0.553,0.288 1.135,0.537 1.732,0.752 1.545,0.558 3.152,0.837 4.777,0.837 1.381,0 2.532,1.23 2.532,2.611 0,1.381 -1.089,2.611 -2.47,2.611 z m 7.659,-2.138 c -0.898,0 -1.766,-0.486 -2.214,-1.336 -0.644,-1.222 -0.175,-2.733 1.047,-3.377 2.003,-1.055 3.737,-2.591 5.014,-4.441 0.784,-1.137 2.339,-1.422 3.478,-0.638 1.136,0.784 1.422,2.341 0.638,3.478 -1.733,2.512 -4.084,4.596 -6.799,6.025 -0.373,0.196 -0.771,0.289 -1.164,0.289 z M 12.774,91.677 c -0.792,0 -1.569,-0.374 -2.055,-1.073 -1.747,-2.512 -2.876,-5.441 -3.266,-8.471 -0.176,-1.369 0.791,-2.622 2.16,-2.799 1.374,-0.175 2.623,0.792 2.799,2.16 0.288,2.236 1.123,4.399 2.413,6.256 0.788,1.134 0.508,2.691 -0.626,3.479 -0.435,0.303 -0.932,0.448 -1.425,0.448 z m 30.415,-7.315 c -0.282,0 -0.569,-0.049 -0.85,-0.149 -1.298,-0.47 -1.971,-1.902 -1.501,-3.201 l 2.708,-7.495 c 0.469,-1.298 1.902,-1.967 3.201,-1.502 1.298,0.47 1.971,1.902 1.501,3.201 l -2.708,7.495 c -0.368,1.018 -1.328,1.651 -2.351,1.651 z M 10.828,76.474 c -0.282,0 -0.569,-0.049 -0.85,-0.149 C 8.68,75.855 8.007,74.423 8.477,73.124 l 2.708,-7.495 c 0.469,-1.298 1.902,-1.967 3.201,-1.502 1.298,0.47 1.971,1.902 1.501,3.201 l -2.708,7.495 c -0.368,1.017 -1.328,1.651 -2.351,1.651 z m 37.777,-7.102 c -0.282,0 -0.569,-0.049 -0.85,-0.149 -1.298,-0.47 -1.971,-1.902 -1.501,-3.201 l 2.708,-7.495 c 0.469,-1.298 1.904,-1.967 3.201,-1.502 1.299,0.47 1.971,1.902 1.502,3.201 l -2.709,7.495 c -0.368,1.017 -1.328,1.651 -2.351,1.651 z M 16.244,61.483 c -0.282,0 -0.569,-0.049 -0.85,-0.149 -1.298,-0.47 -1.971,-1.902 -1.501,-3.201 l 2.708,-7.495 c 0.469,-1.299 1.902,-1.97 3.201,-1.501 1.298,0.469 1.971,1.902 1.501,3.201 l -2.708,7.495 c -0.367,1.017 -1.328,1.65 -2.351,1.65 z m 38.455,-6.529 c -0.876,0 -1.726,-0.461 -2.184,-1.279 -0.674,-1.205 -0.244,-2.729 0.961,-3.403 l 6.955,-3.89 c 1.207,-0.674 2.729,-0.243 3.402,0.962 0.674,1.205 0.244,2.728 -0.961,3.402 l -6.955,3.89 c -0.386,0.216 -0.805,0.318 -1.218,0.318 z m 13.91,-7.78 c -0.876,0 -1.726,-0.461 -2.184,-1.28 -0.674,-1.205 -0.244,-2.729 0.961,-3.402 l 6.955,-3.891 c 1.207,-0.675 2.729,-0.244 3.402,0.961 0.673,1.205 0.244,2.729 -0.961,3.402 l -6.955,3.891 c -0.386,0.217 -0.805,0.319 -1.218,0.319 z M 21.661,46.493 c -0.282,0 -0.569,-0.048 -0.85,-0.149 -1.298,-0.469 -1.971,-1.902 -1.501,-3.201 l 2.708,-7.495 c 0.469,-1.299 1.903,-1.972 3.201,-1.501 1.298,0.469 1.971,1.902 1.501,3.201 l -2.708,7.495 c -0.368,1.017 -1.328,1.65 -2.351,1.65 z m 60.86,-7.099 c -0.876,0 -1.726,-0.461 -2.184,-1.28 -0.674,-1.205 -0.244,-2.729 0.961,-3.402 l 3.437,-1.922 c 1.002,-0.561 1.93,-1.238 2.759,-2.014 1.007,-0.946 2.59,-0.893 3.533,0.115 0.944,1.008 0.893,2.59 -0.115,3.534 -1.124,1.053 -2.381,1.972 -3.736,2.729 l -3.436,1.922 c -0.387,0.215 -0.806,0.318 -1.219,0.318 z M 28.542,32.297 c -0.649,0 -1.298,-0.251 -1.788,-0.752 -0.965,-0.987 -0.947,-2.57 0.04,-3.536 1.201,-1.174 2.554,-2.186 4.021,-3.005 l 3.138,-1.755 c 1.203,-0.675 2.728,-0.244 3.402,0.961 0.674,1.205 0.244,2.728 -0.961,3.402 l -3.138,1.755 c -1.082,0.605 -2.08,1.351 -2.965,2.217 -0.487,0.476 -1.118,0.713 -1.749,0.713 z m 64.961,-3.812 c -0.273,0 -0.551,-0.045 -0.824,-0.14 -1.303,-0.455 -1.991,-1.88 -1.536,-3.184 0.524,-1.504 0.791,-3.071 0.791,-4.656 0,-0.673 -0.049,-1.351 -0.146,-2.015 -0.199,-1.366 0.747,-2.635 2.113,-2.834 1.364,-0.193 2.636,0.748 2.834,2.114 0.132,0.902 0.198,1.822 0.198,2.736 0,2.148 -0.36,4.269 -1.07,6.304 -0.359,1.029 -1.327,1.675 -2.36,1.675 z M 42.131,24.041 c -0.876,0 -1.726,-0.461 -2.185,-1.28 -0.674,-1.205 -0.243,-2.728 0.962,-3.402 l 6.955,-3.89 c 1.204,-0.673 2.728,-0.243 3.402,0.962 0.674,1.205 0.244,2.728 -0.961,3.402 l -6.955,3.89 c -0.386,0.215 -0.805,0.318 -1.218,0.318 z m 13.91,-7.781 c -0.876,0 -1.726,-0.461 -2.184,-1.28 -0.674,-1.205 -0.244,-2.728 0.961,-3.402 l 6.955,-3.89 c 1.208,-0.674 2.729,-0.243 3.402,0.962 0.673,1.205 0.244,2.728 -0.961,3.402 l -6.955,3.89 c -0.386,0.216 -0.805,0.318 -1.218,0.318 z m 35.252,-2.944 c -0.775,0 -1.54,-0.36 -2.029,-1.037 C 87.945,10.451 86.18,8.952 84.16,7.946 82.925,7.33 82.423,5.828 83.039,4.593 c 0.616,-1.237 2.118,-1.738 3.354,-1.122 2.74,1.367 5.135,3.401 6.926,5.882 0.808,1.12 0.556,2.682 -0.564,3.49 -0.443,0.32 -0.955,0.473 -1.462,0.473 z M 69.952,8.48 c -0.886,0 -1.743,-0.471 -2.197,-1.304 -0.66,-1.212 -0.214,-2.73 0.998,-3.392 2.694,-1.469 5.731,-2.272 8.784,-2.324 1.409,-0.029 2.519,1.077 2.542,2.458 0.022,1.38 -1.077,2.519 -2.458,2.542 -2.28,0.039 -4.458,0.615 -6.474,1.714 -0.38,0.208 -0.791,0.306 -1.195,0.306 z"
   id="path1788" />
	<path
   d="m 26.359,82.213 c -0.282,0 -0.569,-0.049 -0.85,-0.149 -1.298,-0.47 -1.971,-1.902 -1.501,-3.201 L 38.083,39.911 76.652,18.338 c 1.206,-0.674 2.728,-0.244 3.402,0.962 0.674,1.205 0.244,2.728 -0.961,3.402 L 42.152,43.364 28.71,80.562 c -0.367,1.017 -1.327,1.651 -2.351,1.651 z"
   id="path1790" />
</g><g
         id="Layer_1">
</g></g><g
       style="fill:#000000"
       id="g6381"
       transform="matrix(0.01900942,0,0,0.01900942,4.4467068,4.5665656)"><g
         id="g6371">
	<path
   d="m 161.463,48.763 c -2.929,-2.929 -7.677,-2.929 -10.607,0 -2.929,2.929 -2.929,7.677 0,10.606 13.763,13.763 21.342,32.062 21.342,51.526 0,19.463 -7.579,37.761 -21.342,51.523 -14.203,14.204 -32.857,21.305 -51.516,21.303 C 80.681,183.72 62.018,176.617 47.813,162.412 19.408,134.007 19.411,87.787 47.818,59.38 c 2.929,-2.929 2.929,-7.678 0,-10.606 -2.929,-2.929 -7.677,-2.929 -10.607,0 -34.255,34.255 -34.258,89.992 -0.005,124.245 17.132,17.132 39.632,25.697 62.135,25.696 22.497,-0.001 44.997,-8.564 62.123,-25.69 16.595,-16.594 25.734,-38.659 25.734,-62.129 0.001,-23.471 -9.139,-45.537 -25.735,-62.133 z"
   id="path6367" />
	<path
   d="m 99.332,97.164 c 4.143,0 7.5,-3.358 7.5,-7.5 V 7.5 c 0,-4.142 -3.357,-7.5 -7.5,-7.5 -4.143,0 -7.5,3.358 -7.5,7.5 v 82.164 c 0,4.143 3.357,7.5 7.5,7.5 z"
   id="path6369" />
</g></g></g></svg>
