<?xml version="1.0" encoding="UTF-8" standalone="no"?>
<!-- Created with Inkscape (http://www.inkscape.org/) -->

<svg
   xmlns:dc="http://purl.org/dc/elements/1.1/"
   xmlns:cc="http://creativecommons.org/ns#"
   xmlns:rdf="http://www.w3.org/1999/02/22-rdf-syntax-ns#"
   xmlns:svg="http://www.w3.org/2000/svg"
   xmlns="http://www.w3.org/2000/svg"
   xmlns:sodipodi="http://sodipodi.sourceforge.net/DTD/sodipodi-0.dtd"
   xmlns:inkscape="http://www.inkscape.org/namespaces/inkscape"
   width="118.42811mm"
   height="94.720833mm"
   viewBox="0 0 118.42811 94.720833"
   version="1.1"
   id="svg8"
   inkscape:version="0.92.1 r15371"
   sodipodi:docname="attributeCombination.svg">
  <defs
     id="defs2" />
  <sodipodi:namedview
     id="base"
     pagecolor="#ffffff"
     bordercolor="#666666"
     borderopacity="1.0"
     inkscape:pageopacity="0.0"
     inkscape:pageshadow="2"
     inkscape:zoom="0.7"
     inkscape:cx="-21.319934"
     inkscape:cy="42.603129"
     inkscape:document-units="mm"
     inkscape:current-layer="layer1"
     showgrid="false"
     fit-margin-top="0"
     fit-margin-left="0"
     fit-margin-right="0"
     fit-margin-bottom="0"
     inkscape:window-width="1920"
     inkscape:window-height="1043"
     inkscape:window-x="0"
     inkscape:window-y="0"
     inkscape:window-maximized="1" />
  <metadata
     id="metadata5">
    <rdf:RDF>
      <cc:Work
         rdf:about="">
        <dc:format>image/svg+xml</dc:format>
        <dc:type
           rdf:resource="http://purl.org/dc/dcmitype/StillImage" />
        <dc:title></dc:title>
      </cc:Work>
    </rdf:RDF>
  </metadata>
  <g
     inkscape:label="Camada 1"
     inkscape:groupmode="layer"
     id="layer1"
     transform="translate(-40.574733,-90.889589)">
    <path
       style="fill:#000000;stroke-width:0.26458332"
       d="m 54.78202,185.00353 c -0.82856,-0.43122 -1.33841,-0.94525 -1.7614,-1.77585 -0.59531,-1.16895 -0.59532,-1.16922 -0.59532,-15.27642 0,-13.2041 -0.0297,-14.11672 -0.46302,-14.25229 -0.25466,-0.0797 -1.46738,-0.63791 -2.69493,-1.24055 -6.36104,-3.1228 -9.83751,-10.41395 -8.35159,-17.51571 0.96765,-4.62476 4.17911,-8.86859 8.25497,-10.90862 1.13648,-0.56882 2.33369,-1.10414 2.66045,-1.18959 l 0.59412,-0.15537 v -14.12392 c 0,-14.120844 1.3e-4,-14.124174 0.59532,-15.304454 0.64082,-1.270807 2.32908,-2.371167 3.63802,-2.371167 0.97125,0 2.91605,1.05945 3.55638,1.937377 0.53013,0.72683 0.54818,1.13506 0.67695,15.309294 l 0.13229,14.56254 1.45521,0.53411 c 4.3596,1.60014 8.06262,5.4909 9.55137,10.03563 0.91379,2.78956 0.90922,7.18708 -0.0104,9.99525 -1.4895,4.54838 -4.8492,8.07136 -9.4993,9.96094 l -1.49688,0.60826 -0.13229,14.54665 c -0.12876,14.15818 -0.14684,14.5666 -0.67695,15.29341 -0.64427,0.88331 -2.58703,1.93737 -3.57083,1.93737 -0.38284,0 -1.22082,-0.2731 -1.86217,-0.60689 z m 4.59293,-39.49735 c 0.6727,-0.22922 1.75878,-0.88829 2.41353,-1.46462 2.6091,-2.29662 3.39365,-6.03205 1.90567,-9.07337 -3.01807,-6.16871 -11.76935,-5.77046 -14.20762,0.64655 -2.28971,6.02603 3.68693,12.0045 9.88842,9.89144 z m 38.6648,39.60009 c -0.59648,-0.27088 -1.37039,-0.89335 -1.71979,-1.38325 l -0.63528,-0.89073 -0.0695,-30.06533 -0.0695,-30.06533 -1.59369,-0.596 c -4.67043,-1.74662 -8.52269,-6.072 -9.77753,-10.97837 -2.27573,-8.89806 3.18869,-17.880234 12.08128,-19.858641 3.94372,-0.8774 8.37586,-0.18068 11.89591,1.869997 1.85901,1.08301 4.6162,3.95319 5.74444,5.97983 1.87483,3.367774 2.50001,7.857944 1.61718,11.614894 -1.2013,5.1122 -5.10037,9.5796 -9.94086,11.38982 l -1.55344,0.58095 -0.004,29.79951 -0.004,29.79951 -0.59205,1.05833 c -0.63999,1.14403 -2.43162,2.25345 -3.6225,2.24315 -0.36935,-0.003 -1.15957,-0.22745 -1.75605,-0.49834 z m 5.11,-71.10538 c 3.84063,-1.81343 5.4254,-6.50492 3.49934,-10.35931 -1.76127,-3.52463 -5.8721,-5.162494 -9.49863,-3.784514 -5.02127,1.907934 -6.7086,8.166174 -3.28129,12.170204 2.37901,2.77934 5.96089,3.54107 9.28058,1.97362 z m 37.91637,71.01422 c -2.25957,-1.15459 -2.24382,-1.0908 -2.33214,-9.44648 l -0.0778,-7.35829 -1.53221,-0.55867 c -4.73558,-1.72668 -8.65215,-6.16174 -9.94992,-11.26715 -0.50976,-2.00539 -0.50743,-5.34609 0.005,-7.52101 1.16631,-4.94773 5.38127,-9.70155 9.99122,-11.26852 l 1.50892,-0.5129 v -21.38496 c 0,-23.542371 -0.0697,-22.534514 1.64961,-23.845911 2.08816,-1.59271 5.04567,-0.92269 6.22174,1.409537 l 0.59531,1.18054 v 21.326874 21.32687 l 1.41597,0.44634 c 4.60752,1.45239 9.01477,6.55687 10.09224,11.68883 1.63403,7.78283 -2.60345,15.59468 -9.98685,18.41087 l -1.52136,0.58028 v 6.91867 c 0,6.64875 -0.0232,6.96474 -0.59531,8.09922 -0.64083,1.27081 -2.32909,2.37117 -3.63802,2.37117 -0.3749,0 -1.2059,-0.26789 -1.84668,-0.59531 z m 4.92177,-25.33573 c 1.67582,-0.71854 3.11486,-2.18377 3.93113,-4.00266 1.80048,-4.01202 -0.17868,-8.73604 -4.31428,-10.29769 -3.15354,-1.19081 -6.7712,-0.15857 -8.8092,2.51355 -1.17906,1.54592 -1.55738,2.75182 -1.54985,4.9402 0.0187,5.41986 5.66964,9.02155 10.7422,6.8466 z"
       id="path4496"
       inkscape:connector-curvature="0" />
  </g>
</svg>
