<?xml version="1.0" encoding="UTF-8" standalone="no"?>
<!-- Created with Inkscape (http://www.inkscape.org/) -->

<svg
   width="32"
   height="32"
   viewBox="0 0 8.4666665 8.4666666"
   version="1.1"
   id="svg8215"
   xml:space="preserve"
   inkscape:version="1.2.1 (9c6d41e410, 2022-07-14)"
   sodipodi:docname="vertices_toggle.svg"
   xmlns:inkscape="http://www.inkscape.org/namespaces/inkscape"
   xmlns:sodipodi="http://sodipodi.sourceforge.net/DTD/sodipodi-0.dtd"
   xmlns="http://www.w3.org/2000/svg"
   xmlns:svg="http://www.w3.org/2000/svg"><sodipodi:namedview
     id="namedview8217"
     pagecolor="#ffffff"
     bordercolor="#999999"
     borderopacity="1"
     inkscape:showpageshadow="0"
     inkscape:pageopacity="0"
     inkscape:pagecheckerboard="0"
     inkscape:deskcolor="#d1d1d1"
     inkscape:document-units="mm"
     showgrid="false"
     inkscape:zoom="16.871996"
     inkscape:cx="12.38739"
     inkscape:cy="14.461833"
     inkscape:window-width="1920"
     inkscape:window-height="1017"
     inkscape:window-x="-8"
     inkscape:window-y="-8"
     inkscape:window-maximized="1"
     inkscape:current-layer="layer1" /><defs
     id="defs8212" /><g
     inkscape:label="Camada 1"
     inkscape:groupmode="layer"
     id="layer1"><path
       d="M 5.8058569,0.58132229 V 1.1215857 l -0.093323,0.00984 C 5.5389757,1.1527222 5.1771466,1.2214952 4.9953764,1.2705941 3.3089784,1.7175351 1.9517338,2.9782918 1.3835848,4.6237168 1.2689626,4.9560352 1.170764,5.383387 1.1314164,5.7108297 l -0.00984,0.094948 H 0.58131634 0.04267784 V 7.1155485 8.4254898 H 1.3524484 2.6622192 V 7.1156339 5.8058633 H 2.1546318 1.6470444 l 0.00984,-0.070399 C 1.7747537,4.8676734 2.1120334,4.0671156 2.6392093,3.3990573 2.7816315,3.2206232 3.2204456,2.7818091 3.3988797,2.6393869 4.0685633,2.1122111 4.8658706,1.7765566 5.7369125,1.657059 l 0.068773,-0.00984 v 0.50759 0.5075875 H 7.1154564 8.4254836 V 1.3526265 0.04268454 H 7.1156274 5.8058569 Z M 7.9015586,1.3525404 V 2.138386 H 7.1156274 6.3297821 V 1.3525404 0.56661026 H 7.1156274 7.9015586 Z M 2.1383794,7.1156339 v 0.785931 H 1.3525344 0.56660357 V 7.1156339 6.3297887 h 0.78584483 0.785931 z"
       id="path11605"
       style="stroke-width:0.000855386" /><g
       style="fill:#000000"
       id="g12361"
       transform="matrix(0.01828266,0,0,0.01828266,4.6023749,4.5195142)"><g
         id="g12351">
	<path
   d="m 161.463,48.763 c -2.929,-2.929 -7.677,-2.929 -10.607,0 -2.929,2.929 -2.929,7.677 0,10.606 13.763,13.763 21.342,32.062 21.342,51.526 0,19.463 -7.579,37.761 -21.342,51.523 -14.203,14.204 -32.857,21.305 -51.516,21.303 C 80.681,183.72 62.018,176.617 47.813,162.412 19.408,134.007 19.411,87.787 47.818,59.38 c 2.929,-2.929 2.929,-7.678 0,-10.606 -2.929,-2.929 -7.677,-2.929 -10.607,0 -34.255,34.255 -34.258,89.992 -0.005,124.245 17.132,17.132 39.632,25.697 62.135,25.696 22.497,-0.001 44.997,-8.564 62.123,-25.69 16.595,-16.594 25.734,-38.659 25.734,-62.129 0.001,-23.471 -9.139,-45.537 -25.735,-62.133 z"
   id="path12347" />
	<path
   d="m 99.332,97.164 c 4.143,0 7.5,-3.358 7.5,-7.5 V 7.5 c 0,-4.142 -3.357,-7.5 -7.5,-7.5 -4.143,0 -7.5,3.358 -7.5,7.5 v 82.164 c 0,4.143 3.357,7.5 7.5,7.5 z"
   id="path12349" />
</g></g></g></svg>
